<mxfile host="app.diagrams.net" agent="Mozilla/5.0 (Windows NT 10.0; Win64; x64) AppleWebKit/537.36 (KHTML, like Gecko) Chrome/131.0.0.0 Safari/537.36" version="26.0.1">
  <diagram name="Side-1" id="HnTqVkTqDeF8yrJgcu7g">
    <mxGraphModel dx="472" dy="737" grid="1" gridSize="10" guides="1" tooltips="1" connect="1" arrows="1" fold="1" page="1" pageScale="1" pageWidth="827" pageHeight="1169" math="0" shadow="0">
      <root>
        <mxCell id="0" />
        <mxCell id="1" parent="0" />
        <mxCell id="bfznC2S717UpkHnf2Eop-1" value="Kategori" style="text;html=1;align=left;verticalAlign=middle;whiteSpace=wrap;rounded=0;" vertex="1" parent="1">
          <mxGeometry x="20" y="370" width="60" height="20" as="geometry" />
        </mxCell>
        <mxCell id="bfznC2S717UpkHnf2Eop-2" value="Fobrugt tid" style="text;html=1;align=left;verticalAlign=middle;whiteSpace=wrap;rounded=0;" vertex="1" parent="1">
          <mxGeometry x="20" y="405" width="80" height="20" as="geometry" />
        </mxCell>
        <mxCell id="bfznC2S717UpkHnf2Eop-3" value="" style="rounded=0;whiteSpace=wrap;html=1;" vertex="1" parent="1">
          <mxGeometry x="120" y="405" width="120" height="20" as="geometry" />
        </mxCell>
        <mxCell id="bfznC2S717UpkHnf2Eop-4" value="" style="rounded=0;whiteSpace=wrap;html=1;" vertex="1" parent="1">
          <mxGeometry x="120" y="370" width="100" height="20" as="geometry" />
        </mxCell>
        <mxCell id="bfznC2S717UpkHnf2Eop-6" value="" style="endArrow=none;html=1;rounded=0;" edge="1" parent="1">
          <mxGeometry width="50" height="50" relative="1" as="geometry">
            <mxPoint x="240" y="380" as="sourcePoint" />
            <mxPoint x="240" y="380" as="targetPoint" />
          </mxGeometry>
        </mxCell>
        <mxCell id="bfznC2S717UpkHnf2Eop-7" value="" style="group" vertex="1" connectable="0" parent="1">
          <mxGeometry x="220" y="370" width="20" height="20" as="geometry" />
        </mxCell>
        <mxCell id="bfznC2S717UpkHnf2Eop-8" value="" style="rounded=0;whiteSpace=wrap;html=1;" vertex="1" parent="bfznC2S717UpkHnf2Eop-7">
          <mxGeometry width="20" height="20" as="geometry" />
        </mxCell>
        <mxCell id="bfznC2S717UpkHnf2Eop-9" value="" style="endArrow=none;html=1;rounded=0;" edge="1" parent="bfznC2S717UpkHnf2Eop-7">
          <mxGeometry width="50" height="50" relative="1" as="geometry">
            <mxPoint x="2" y="5" as="sourcePoint" />
            <mxPoint x="18" y="5" as="targetPoint" />
            <Array as="points">
              <mxPoint x="10" y="15" />
            </Array>
          </mxGeometry>
        </mxCell>
        <mxCell id="bfznC2S717UpkHnf2Eop-12" value="Dato" style="text;html=1;align=left;verticalAlign=middle;whiteSpace=wrap;rounded=0;" vertex="1" parent="1">
          <mxGeometry x="20" y="335" width="80" height="20" as="geometry" />
        </mxCell>
        <mxCell id="bfznC2S717UpkHnf2Eop-13" value="" style="rounded=0;whiteSpace=wrap;html=1;" vertex="1" parent="1">
          <mxGeometry x="120" y="335" width="120" height="20" as="geometry" />
        </mxCell>
        <mxCell id="bfznC2S717UpkHnf2Eop-15" value="timer" style="text;html=1;align=left;verticalAlign=middle;whiteSpace=wrap;rounded=0;" vertex="1" parent="1">
          <mxGeometry x="250" y="400" width="60" height="30" as="geometry" />
        </mxCell>
        <mxCell id="bfznC2S717UpkHnf2Eop-16" value="åååå/mm/dd" style="text;html=1;align=left;verticalAlign=middle;whiteSpace=wrap;rounded=0;" vertex="1" parent="1">
          <mxGeometry x="250" y="330" width="80" height="30" as="geometry" />
        </mxCell>
        <mxCell id="bfznC2S717UpkHnf2Eop-17" value="Opgave id" style="text;html=1;align=left;verticalAlign=middle;whiteSpace=wrap;rounded=0;" vertex="1" parent="1">
          <mxGeometry x="20" y="300" width="80" height="20" as="geometry" />
        </mxCell>
        <mxCell id="bfznC2S717UpkHnf2Eop-18" value="" style="rounded=0;whiteSpace=wrap;html=1;" vertex="1" parent="1">
          <mxGeometry x="120" y="300" width="120" height="20" as="geometry" />
        </mxCell>
        <mxCell id="bfznC2S717UpkHnf2Eop-19" value="Beskrivelse" style="text;html=1;align=left;verticalAlign=middle;whiteSpace=wrap;rounded=0;" vertex="1" parent="1">
          <mxGeometry x="20" y="440" width="80" height="20" as="geometry" />
        </mxCell>
        <mxCell id="bfznC2S717UpkHnf2Eop-20" value="" style="rounded=0;whiteSpace=wrap;html=1;" vertex="1" parent="1">
          <mxGeometry x="120" y="440" width="120" height="20" as="geometry" />
        </mxCell>
        <mxCell id="bfznC2S717UpkHnf2Eop-21" value="Tilføj" style="rounded=0;whiteSpace=wrap;html=1;fillColor=#f5f5f5;fontColor=#333333;strokeColor=#666666;" vertex="1" parent="1">
          <mxGeometry x="250" y="230" width="70" height="20" as="geometry" />
        </mxCell>
        <mxCell id="bfznC2S717UpkHnf2Eop-22" value="Dato 12/02/2023&lt;div&gt;&lt;br&gt;&lt;/div&gt;" style="rounded=0;whiteSpace=wrap;html=1;align=left;verticalAlign=top;" vertex="1" parent="1">
          <mxGeometry x="20" y="10" width="300" height="210" as="geometry" />
        </mxCell>
        <mxCell id="bfznC2S717UpkHnf2Eop-23" value="Find" style="rounded=0;whiteSpace=wrap;html=1;fillColor=#f5f5f5;fontColor=#333333;strokeColor=#666666;align=center;" vertex="1" parent="1">
          <mxGeometry x="250" y="300" width="70" height="20" as="geometry" />
        </mxCell>
        <mxCell id="bfznC2S717UpkHnf2Eop-24" value="Næste" style="rounded=0;whiteSpace=wrap;html=1;fillColor=#f5f5f5;fontColor=#333333;strokeColor=#666666;" vertex="1" parent="1">
          <mxGeometry x="95" y="230" width="70" height="20" as="geometry" />
        </mxCell>
        <mxCell id="bfznC2S717UpkHnf2Eop-25" value="Forrige" style="rounded=0;whiteSpace=wrap;html=1;fillColor=#f5f5f5;fontColor=#333333;strokeColor=#666666;" vertex="1" parent="1">
          <mxGeometry x="20" y="230" width="70" height="20" as="geometry" />
        </mxCell>
        <mxCell id="bfznC2S717UpkHnf2Eop-27" value="Slet" style="rounded=0;whiteSpace=wrap;html=1;fillColor=#f5f5f5;fontColor=#333333;strokeColor=#666666;align=center;" vertex="1" parent="1">
          <mxGeometry x="100" y="480" width="70" height="20" as="geometry" />
        </mxCell>
        <mxCell id="bfznC2S717UpkHnf2Eop-28" value="Gem" style="rounded=0;whiteSpace=wrap;html=1;fillColor=#f5f5f5;fontColor=#333333;strokeColor=#666666;align=center;" vertex="1" parent="1">
          <mxGeometry x="20" y="480" width="70" height="20" as="geometry" />
        </mxCell>
      </root>
    </mxGraphModel>
  </diagram>
</mxfile>
